<svg width="8122" height="2320" viewBox="0 0 8122 2320" fill="none" xmlns="http://www.w3.org/2000/svg">
<g clip-path="url(#clip0_2344_19)">
<rect width="8122" height="2320" fill="white"/>
<mask id="mask0_2344_19" style="mask-type:luminance" maskUnits="userSpaceOnUse" x="0" y="0" width="8122" height="2320">
<path d="M0 0H8122V2320H0V0Z" fill="white"/>
</mask>
<g mask="url(#mask0_2344_19)">
<path d="M3033.19 629.022H3352.04V1742.09H3033.19V1631.23C2943.65 1722.88 2831.33 1768.71 2696.27 1768.71C2543.46 1768.71 2415.69 1712.92 2313 1601.35C2210.28 1489.78 2158.95 1351.2 2158.95 1185.56C2158.95 1019.94 2210.28 881.336 2313 769.764C2415.69 658.149 2543.46 602.319 2696.27 602.319C2831.33 602.319 2943.65 648.19 3033.19 739.889V629.022ZM2760.25 1460.61C2838.45 1460.61 2903.49 1434.32 2955.37 1381.73C3007.24 1329.16 3033.19 1263.77 3033.19 1185.56C3033.19 1107.37 3007.24 1041.97 2955.37 989.382C2903.49 936.747 2838.45 910.419 2760.25 910.419C2682.81 910.419 2618.3 936.747 2566.72 989.382C2515.19 1041.97 2489.43 1107.37 2489.43 1185.56C2489.43 1263.77 2515.19 1329.16 2566.72 1381.73C2618.3 1434.32 2682.81 1460.61 2760.25 1460.61ZM4248.76 629.022H4604.89L4152.79 1742.09H3825.47L3371.26 629.022H3735.93L3993.98 1338.02L4248.76 629.022ZM5350.68 918.967H5064.97V1327.36C5064.97 1416.19 5111.52 1460.61 5204.65 1460.61C5250.83 1460.61 5299.5 1447.46 5350.68 1421.13V1720.77C5287.45 1752.71 5216.4 1768.71 5137.5 1768.71C5006.72 1768.71 4908.8 1733.72 4843.76 1663.75C4778.73 1593.73 4746.21 1499.01 4746.21 1379.62V918.967H4577.7V629.022H4746.21V352.825H5064.97V629.022H5350.68V918.967ZM5597.38 486.077C5541.97 486.077 5495.42 467.437 5457.7 430.115C5420.02 392.814 5401.2 346.083 5401.2 289.901C5401.2 234.512 5420.02 188.332 5457.7 151.362C5495.42 114.348 5541.97 95.8406 5597.38 95.8406C5654.25 95.8406 5701.68 114.348 5739.71 151.362C5777.78 188.332 5796.82 234.512 5796.82 289.901C5796.82 346.083 5777.78 392.814 5739.71 430.115C5701.68 467.437 5654.25 486.077 5597.38 486.077ZM5438.57 1742.09V629.022H5757.34V1742.09H5438.57ZM6654.21 629.022H7010.34L6558.23 1742.09H6230.92L5776.7 629.022H6141.38L6399.42 1338.02L6654.21 629.022ZM8084.54 1189.79C8084.54 1228.17 8082.43 1261.57 8078.2 1289.99H7248.64C7268.56 1352.56 7303.74 1401.63 7354.22 1437.17C7404.67 1472.73 7464.73 1490.48 7534.35 1490.48C7594.1 1490.48 7648.48 1478.76 7697.48 1455.32C7746.52 1431.83 7785.28 1402.31 7813.72 1366.75L8028.05 1552.35C7967.64 1620.56 7894.1 1673.68 7807.38 1711.69C7720.66 1749.69 7626.82 1768.71 7525.89 1768.71C7348.86 1768.71 7201.18 1712.39 7082.87 1599.77C6964.53 1487.09 6905.37 1346.88 6905.37 1179.12C6905.37 1071.78 6931.13 974.048 6982.66 885.919C7034.18 797.789 7105.43 728.498 7196.38 678.022C7287.37 627.568 7388.32 602.319 7499.19 602.319C7666.22 602.319 7805.53 658.149 7917.1 769.764C8028.71 881.336 8084.54 1021.35 8084.54 1189.79ZM7494.96 877.37C7435.25 877.37 7382.99 895.326 7338.18 931.217C7293.41 967.13 7262.85 1016 7246.52 1077.86H7746.57C7728.81 1015.29 7697.52 966.248 7652.71 930.688C7607.94 895.15 7555.35 877.37 7494.96 877.37Z" fill="#15363B"/>
</g>
<path d="M39.1631 246.323L457.86 1380.85L1345.42 1494.69L1127.39 896.556L548.548 819.374L880.414 348.585L39.1631 246.323Z" fill="#F5B51B"/>
<path d="M2261.92 250.182L1779.55 948.65L1482.41 381.39L1127.39 896.557L548.549 819.375L1059.86 90.036L2261.92 250.182Z" fill="#0FB287"/>
<path d="M1908.83 1174.4L1220.01 2170.01L814.817 1425.23L1345.42 1494.69L1127.39 896.554L1482.42 381.386L1908.83 1174.4Z" fill="#0A3E94"/>
</g>
<defs>
<clipPath id="clip0_2344_19">
<rect width="8122" height="2320" fill="white"/>
</clipPath>
</defs>
</svg>
